<mxfile modified="2021-03-15T16:10:20.009Z" host="app.diagrams.net" agent="5.0 (Windows NT 10.0; Win64; x64) AppleWebKit/537.36 (KHTML, like Gecko) Chrome/86.0.4240.111 Safari/537.36" etag="eklHd84R0E0XG80wdiib" version="14.4.8" type="github">
  <diagram id="L7AmGdbM5a0eF8O18IkO" name="第 1 页">
    <mxGraphModel dx="2745" dy="1112" grid="1" gridSize="10" guides="1" tooltips="1" connect="1" arrows="1" fold="1" page="1" pageScale="1" pageWidth="827" pageHeight="1169" math="0" shadow="0">
      <root>
        <mxCell id="0" />
        <mxCell id="1" parent="0" />
        <mxCell id="TAGGZ8Yfu5hqmtk8ZU21-43" value="" style="rounded=0;whiteSpace=wrap;html=1;fontSize=17;fillColor=none;strokeWidth=3;strokeColor=#97D077;dashed=1;dashPattern=1 1;" vertex="1" parent="1">
          <mxGeometry x="-370" y="420" width="810" height="480" as="geometry" />
        </mxCell>
        <mxCell id="TAGGZ8Yfu5hqmtk8ZU21-45" value="" style="rounded=0;whiteSpace=wrap;html=1;fontSize=17;fillColor=none;strokeWidth=3;strokeColor=#EA6B66;dashed=1;dashPattern=1 1;" vertex="1" parent="1">
          <mxGeometry x="480" y="30" width="680" height="870" as="geometry" />
        </mxCell>
        <mxCell id="TAGGZ8Yfu5hqmtk8ZU21-48" value="" style="rounded=0;whiteSpace=wrap;html=1;fontSize=17;fillColor=none;strokeWidth=3;strokeColor=#7EA6E0;dashed=1;dashPattern=1 1;" vertex="1" parent="1">
          <mxGeometry x="-370" y="30" width="810" height="370" as="geometry" />
        </mxCell>
        <mxCell id="TAGGZ8Yfu5hqmtk8ZU21-34" value="" style="rounded=0;whiteSpace=wrap;html=1;fontSize=15;fillColor=#f5f5f5;strokeColor=#666666;fontColor=#333333;" vertex="1" parent="1">
          <mxGeometry x="798.5" y="360" width="153" height="450" as="geometry" />
        </mxCell>
        <mxCell id="9zWrci_jODp58yHlMNQq-2" style="edgeStyle=orthogonalEdgeStyle;rounded=0;orthogonalLoop=1;jettySize=auto;html=1;" parent="1" edge="1">
          <mxGeometry relative="1" as="geometry">
            <Array as="points">
              <mxPoint x="120" y="255" />
              <mxPoint x="120" y="255" />
            </Array>
            <mxPoint x="215" y="255" as="sourcePoint" />
            <mxPoint x="-20" y="255" as="targetPoint" />
          </mxGeometry>
        </mxCell>
        <mxCell id="9zWrci_jODp58yHlMNQq-3" value="动态 多数据源 持久化" style="edgeLabel;html=1;align=center;verticalAlign=middle;resizable=0;points=[];" parent="9zWrci_jODp58yHlMNQq-2" vertex="1" connectable="0">
          <mxGeometry x="0.7458" y="-1" relative="1" as="geometry">
            <mxPoint x="-84.92999999999999" y="-44.1" as="offset" />
          </mxGeometry>
        </mxCell>
        <mxCell id="9zWrci_jODp58yHlMNQq-18" style="edgeStyle=orthogonalEdgeStyle;rounded=0;orthogonalLoop=1;jettySize=auto;html=1;" parent="1" edge="1">
          <mxGeometry relative="1" as="geometry">
            <Array as="points">
              <mxPoint x="70" y="253" />
              <mxPoint x="70" y="360" />
            </Array>
            <mxPoint x="70" y="253" as="sourcePoint" />
            <mxPoint x="-41" y="360" as="targetPoint" />
          </mxGeometry>
        </mxCell>
        <mxCell id="9zWrci_jODp58yHlMNQq-22" style="edgeStyle=orthogonalEdgeStyle;rounded=0;orthogonalLoop=1;jettySize=auto;html=1;entryX=1.026;entryY=0.512;entryDx=0;entryDy=0;entryPerimeter=0;" parent="1" target="9zWrci_jODp58yHlMNQq-20" edge="1">
          <mxGeometry relative="1" as="geometry">
            <Array as="points">
              <mxPoint x="70" y="160" />
            </Array>
            <mxPoint x="70" y="258" as="sourcePoint" />
          </mxGeometry>
        </mxCell>
        <mxCell id="uHxRwa593Bf14waWoEn_-14" value="&lt;font color=&quot;#190033&quot;&gt;节点表单&lt;/font&gt;" style="html=1;shadow=0;dashed=0;shape=mxgraph.bootstrap.rrect;align=center;rSize=5;strokeColor=#3D8BCD;fillColor=#ffffff;fontColor=#f0f0f0;spacingTop=30;whiteSpace=wrap;" parent="1" vertex="1">
          <mxGeometry x="240" y="488" width="150" height="92" as="geometry" />
        </mxCell>
        <mxCell id="uHxRwa593Bf14waWoEn_-15" value="表单 【申请页面】" style="html=1;shadow=0;dashed=0;shape=mxgraph.bootstrap.topButton;rSize=5;strokeColor=none;fillColor=#3D8BCD;fontColor=#ffffff;fontSize=14;fontStyle=1;align=left;spacingLeft=10;whiteSpace=wrap;resizeWidth=1;" parent="uHxRwa593Bf14waWoEn_-14" vertex="1">
          <mxGeometry width="150" height="30" relative="1" as="geometry" />
        </mxCell>
        <mxCell id="uHxRwa593Bf14waWoEn_-16" value="&lt;font color=&quot;#333333&quot;&gt;节点表单&lt;/font&gt;" style="html=1;shadow=0;dashed=0;shape=mxgraph.bootstrap.rrect;align=center;rSize=5;strokeColor=#3D8BCD;fillColor=#ffffff;fontColor=#f0f0f0;spacingTop=30;whiteSpace=wrap;" parent="1" vertex="1">
          <mxGeometry x="240" y="621" width="150" height="90" as="geometry" />
        </mxCell>
        <mxCell id="uHxRwa593Bf14waWoEn_-17" value="表单 【订单详情】" style="html=1;shadow=0;dashed=0;shape=mxgraph.bootstrap.topButton;rSize=5;strokeColor=none;fillColor=#3D8BCD;fontColor=#ffffff;fontSize=14;fontStyle=1;align=left;spacingLeft=10;whiteSpace=wrap;resizeWidth=1;" parent="uHxRwa593Bf14waWoEn_-16" vertex="1">
          <mxGeometry width="150" height="30" relative="1" as="geometry" />
        </mxCell>
        <mxCell id="uHxRwa593Bf14waWoEn_-18" value="&lt;font color=&quot;#333333&quot;&gt;节点表单&lt;/font&gt;" style="html=1;shadow=0;dashed=0;shape=mxgraph.bootstrap.rrect;align=center;rSize=5;strokeColor=#3D8BCD;fillColor=#ffffff;fontColor=#f0f0f0;spacingTop=30;whiteSpace=wrap;" parent="1" vertex="1">
          <mxGeometry x="240" y="770" width="150" height="90" as="geometry" />
        </mxCell>
        <mxCell id="uHxRwa593Bf14waWoEn_-19" value="表单 【出库单】" style="html=1;shadow=0;dashed=0;shape=mxgraph.bootstrap.topButton;rSize=5;strokeColor=none;fillColor=#3D8BCD;fontColor=#ffffff;fontSize=14;fontStyle=1;align=left;spacingLeft=10;whiteSpace=wrap;resizeWidth=1;" parent="uHxRwa593Bf14waWoEn_-18" vertex="1">
          <mxGeometry width="150" height="30" relative="1" as="geometry" />
        </mxCell>
        <mxCell id="uHxRwa593Bf14waWoEn_-22" value="" style="html=1;verticalAlign=bottom;endArrow=open;endSize=8;exitX=0.5;exitY=1;exitDx=0;exitDy=0;entryX=0.013;entryY=0.567;entryDx=0;entryDy=0;entryPerimeter=0;" parent="1" edge="1">
          <mxGeometry relative="1" as="geometry">
            <mxPoint x="292" y="308" as="sourcePoint" />
            <mxPoint x="238.94999999999982" y="821.03" as="targetPoint" />
            <Array as="points">
              <mxPoint x="294" y="410" />
              <mxPoint x="167" y="410" />
              <mxPoint x="170" y="821" />
            </Array>
          </mxGeometry>
        </mxCell>
        <mxCell id="uHxRwa593Bf14waWoEn_-25" value="" style="html=1;verticalAlign=bottom;endArrow=open;endSize=8;entryX=0;entryY=0.583;entryDx=0;entryDy=0;entryPerimeter=0;" parent="1" edge="1">
          <mxGeometry x="0.25" y="-60" relative="1" as="geometry">
            <mxPoint x="168" y="542" as="sourcePoint" />
            <mxPoint x="238" y="541.636" as="targetPoint" />
            <mxPoint as="offset" />
          </mxGeometry>
        </mxCell>
        <mxCell id="uHxRwa593Bf14waWoEn_-27" value="" style="html=1;verticalAlign=bottom;endArrow=open;endSize=8;" parent="1" edge="1">
          <mxGeometry x="0.25" y="-60" relative="1" as="geometry">
            <mxPoint x="170" y="671" as="sourcePoint" />
            <mxPoint x="240" y="671.2283464566929" as="targetPoint" />
            <mxPoint as="offset" />
          </mxGeometry>
        </mxCell>
        <mxCell id="uHxRwa593Bf14waWoEn_-29" value="&lt;b&gt;&lt;font style=&quot;font-size: 16px&quot;&gt;二、通过业务对象生成表单&lt;/font&gt;&lt;/b&gt;" style="text;html=1;resizable=0;points=[];autosize=1;align=left;verticalAlign=top;spacingTop=-4;" parent="1" vertex="1">
          <mxGeometry x="177" y="440" width="210" height="20" as="geometry" />
        </mxCell>
        <mxCell id="uHxRwa593Bf14waWoEn_-38" value="&lt;b&gt;&lt;font style=&quot;font-size: 16px&quot;&gt;一、通过实体（表）配置业务对象&lt;/font&gt;&lt;/b&gt;" style="text;html=1;resizable=0;points=[];autosize=1;align=left;verticalAlign=top;spacingTop=-4;" parent="1" vertex="1">
          <mxGeometry x="154" y="50" width="260" height="20" as="geometry" />
        </mxCell>
        <mxCell id="uHxRwa593Bf14waWoEn_-51" value="主表      【订单】" style="swimlane;fontStyle=0;childLayout=stackLayout;horizontal=1;startSize=26;horizontalStack=0;resizeParent=1;resizeParentMax=0;resizeLast=0;collapsible=1;marginBottom=0;align=center;fillColor=#dae8fc;strokeColor=#6c8ebf;" parent="1" vertex="1">
          <mxGeometry x="227" y="81" width="140" height="78" as="geometry" />
        </mxCell>
        <mxCell id="uHxRwa593Bf14waWoEn_-52" value="一对多子表 【物料】" style="text;strokeColor=none;fillColor=none;align=left;verticalAlign=top;spacingLeft=4;spacingRight=4;overflow=hidden;rotatable=0;points=[[0,0.5],[1,0.5]];portConstraint=eastwest;" parent="uHxRwa593Bf14waWoEn_-51" vertex="1">
          <mxGeometry y="26" width="140" height="26" as="geometry" />
        </mxCell>
        <mxCell id="uHxRwa593Bf14waWoEn_-53" value="一对一子表 【客户】" style="text;strokeColor=none;fillColor=none;align=left;verticalAlign=top;spacingLeft=4;spacingRight=4;overflow=hidden;rotatable=0;points=[[0,0.5],[1,0.5]];portConstraint=eastwest;" parent="uHxRwa593Bf14waWoEn_-51" vertex="1">
          <mxGeometry y="52" width="140" height="26" as="geometry" />
        </mxCell>
        <mxCell id="uHxRwa593Bf14waWoEn_-56" value="" style="endArrow=block;endSize=16;endFill=0;html=1;exitX=0.486;exitY=1.038;exitDx=0;exitDy=0;exitPerimeter=0;entryX=0.5;entryY=0;entryDx=0;entryDy=0;" parent="1" source="uHxRwa593Bf14waWoEn_-1" edge="1">
          <mxGeometry width="160" relative="1" as="geometry">
            <mxPoint x="299.98" y="198" as="sourcePoint" />
            <mxPoint x="299" y="270" as="targetPoint" />
            <Array as="points" />
          </mxGeometry>
        </mxCell>
        <mxCell id="uHxRwa593Bf14waWoEn_-71" style="edgeStyle=orthogonalEdgeStyle;rounded=0;orthogonalLoop=1;jettySize=auto;html=1;entryX=0.5;entryY=0;entryDx=0;entryDy=0;" parent="1" source="uHxRwa593Bf14waWoEn_-59" target="uHxRwa593Bf14waWoEn_-62" edge="1">
          <mxGeometry relative="1" as="geometry" />
        </mxCell>
        <mxCell id="uHxRwa593Bf14waWoEn_-59" value="开始" style="strokeWidth=2;html=1;shape=mxgraph.flowchart.start_2;whiteSpace=wrap;align=center;fillColor=#fff2cc;strokeColor=#d6b656;" parent="1" vertex="1">
          <mxGeometry x="600" y="293" width="50" height="44" as="geometry" />
        </mxCell>
        <mxCell id="uHxRwa593Bf14waWoEn_-64" value="" style="edgeStyle=orthogonalEdgeStyle;rounded=0;orthogonalLoop=1;jettySize=auto;html=1;" parent="1" source="uHxRwa593Bf14waWoEn_-62" target="uHxRwa593Bf14waWoEn_-63" edge="1">
          <mxGeometry relative="1" as="geometry" />
        </mxCell>
        <mxCell id="uHxRwa593Bf14waWoEn_-62" value="&lt;b&gt;&lt;font style=&quot;font-size: 13px&quot;&gt;订单发起&lt;/font&gt;&lt;/b&gt;" style="rounded=1;whiteSpace=wrap;html=1;absoluteArcSize=1;arcSize=14;strokeWidth=2;align=center;fillColor=#fff2cc;strokeColor=#d6b656;" parent="1" vertex="1">
          <mxGeometry x="575" y="381" width="100" height="58" as="geometry" />
        </mxCell>
        <mxCell id="uHxRwa593Bf14waWoEn_-66" value="" style="edgeStyle=orthogonalEdgeStyle;rounded=0;orthogonalLoop=1;jettySize=auto;html=1;" parent="1" source="uHxRwa593Bf14waWoEn_-63" target="uHxRwa593Bf14waWoEn_-65" edge="1">
          <mxGeometry relative="1" as="geometry" />
        </mxCell>
        <mxCell id="uHxRwa593Bf14waWoEn_-63" value="部门审批" style="rounded=1;whiteSpace=wrap;html=1;absoluteArcSize=1;arcSize=14;strokeWidth=2;align=center;fillColor=#fff2cc;strokeColor=#d6b656;fontSize=13;fontStyle=1" parent="1" vertex="1">
          <mxGeometry x="575" y="488" width="100" height="58" as="geometry" />
        </mxCell>
        <mxCell id="uHxRwa593Bf14waWoEn_-68" value="" style="edgeStyle=orthogonalEdgeStyle;rounded=0;orthogonalLoop=1;jettySize=auto;html=1;" parent="1" source="uHxRwa593Bf14waWoEn_-65" target="uHxRwa593Bf14waWoEn_-67" edge="1">
          <mxGeometry relative="1" as="geometry" />
        </mxCell>
        <mxCell id="uHxRwa593Bf14waWoEn_-65" value="财务审核" style="rounded=1;whiteSpace=wrap;html=1;absoluteArcSize=1;arcSize=14;strokeWidth=2;align=center;fillColor=#fff2cc;strokeColor=#d6b656;fontSize=13;fontStyle=1" parent="1" vertex="1">
          <mxGeometry x="575" y="595" width="100" height="58" as="geometry" />
        </mxCell>
        <mxCell id="uHxRwa593Bf14waWoEn_-70" style="edgeStyle=orthogonalEdgeStyle;rounded=0;orthogonalLoop=1;jettySize=auto;html=1;entryX=0.5;entryY=0;entryDx=0;entryDy=0;entryPerimeter=0;" parent="1" source="uHxRwa593Bf14waWoEn_-67" target="uHxRwa593Bf14waWoEn_-69" edge="1">
          <mxGeometry relative="1" as="geometry" />
        </mxCell>
        <mxCell id="uHxRwa593Bf14waWoEn_-67" value="仓库出库" style="rounded=1;whiteSpace=wrap;html=1;absoluteArcSize=1;arcSize=14;strokeWidth=2;align=center;fillColor=#fff2cc;strokeColor=#d6b656;fontSize=13;fontStyle=1" parent="1" vertex="1">
          <mxGeometry x="575" y="702" width="100" height="58" as="geometry" />
        </mxCell>
        <mxCell id="uHxRwa593Bf14waWoEn_-69" value="归档" style="strokeWidth=2;html=1;shape=mxgraph.flowchart.start_1;whiteSpace=wrap;align=center;fillColor=#fff2cc;strokeColor=#d6b656;fontStyle=1;fontSize=13;" parent="1" vertex="1">
          <mxGeometry x="590" y="815" width="70" height="50" as="geometry" />
        </mxCell>
        <mxCell id="uHxRwa593Bf14waWoEn_-72" value="" style="curved=1;endArrow=classic;html=1;exitX=1;exitY=0.5;exitDx=0;exitDy=0;dashed=1;dashPattern=1 2;fillColor=#fff2cc;strokeColor=#d6b656;strokeWidth=5;" parent="1" source="uHxRwa593Bf14waWoEn_-1" target="uHxRwa593Bf14waWoEn_-69" edge="1">
          <mxGeometry width="50" height="50" relative="1" as="geometry">
            <mxPoint x="450" y="370" as="sourcePoint" />
            <mxPoint x="710" y="850" as="targetPoint" />
            <Array as="points">
              <mxPoint x="570" y="230" />
              <mxPoint x="630" y="250" />
              <mxPoint x="620" y="300" />
            </Array>
          </mxGeometry>
        </mxCell>
        <mxCell id="uHxRwa593Bf14waWoEn_-80" value="&lt;b&gt;&lt;font style=&quot;font-size: 18px&quot;&gt;BusinessObject&lt;/font&gt;&lt;/b&gt;" style="text;html=1;resizable=0;points=[];align=center;verticalAlign=middle;labelBackgroundColor=#ffffff;" parent="uHxRwa593Bf14waWoEn_-72" vertex="1" connectable="0">
          <mxGeometry x="-0.6536" y="-2" relative="1" as="geometry">
            <mxPoint as="offset" />
          </mxGeometry>
        </mxCell>
        <mxCell id="uHxRwa593Bf14waWoEn_-74" value="Use" style="endArrow=open;endSize=12;html=1;strokeWidth=2;exitX=0;exitY=0.5;exitDx=0;exitDy=0;entryX=1.013;entryY=0.567;entryDx=0;entryDy=0;entryPerimeter=0;" parent="1" source="uHxRwa593Bf14waWoEn_-62" target="uHxRwa593Bf14waWoEn_-14" edge="1">
          <mxGeometry width="160" relative="1" as="geometry">
            <mxPoint x="-250" y="770" as="sourcePoint" />
            <mxPoint x="-90" y="770" as="targetPoint" />
          </mxGeometry>
        </mxCell>
        <mxCell id="uHxRwa593Bf14waWoEn_-77" value="Use" style="endArrow=open;endSize=12;html=1;strokeWidth=2;exitX=0;exitY=0.5;exitDx=0;exitDy=0;entryX=1.007;entryY=0.573;entryDx=0;entryDy=0;entryPerimeter=0;" parent="1" source="uHxRwa593Bf14waWoEn_-63" target="uHxRwa593Bf14waWoEn_-16" edge="1">
          <mxGeometry width="160" relative="1" as="geometry">
            <mxPoint x="585" y="420" as="sourcePoint" />
            <mxPoint x="381.95000000000005" y="566.04" as="targetPoint" />
          </mxGeometry>
        </mxCell>
        <mxCell id="uHxRwa593Bf14waWoEn_-78" value="Use" style="endArrow=open;endSize=12;html=1;strokeWidth=2;entryX=1.013;entryY=0.691;entryDx=0;entryDy=0;entryPerimeter=0;" parent="1" target="uHxRwa593Bf14waWoEn_-16" edge="1">
          <mxGeometry width="160" relative="1" as="geometry">
            <mxPoint x="570" y="630" as="sourcePoint" />
            <mxPoint x="381.04999999999995" y="731.03" as="targetPoint" />
          </mxGeometry>
        </mxCell>
        <mxCell id="uHxRwa593Bf14waWoEn_-79" value="Use" style="endArrow=open;endSize=12;html=1;strokeWidth=2;entryX=0.993;entryY=0.5;entryDx=0;entryDy=0;entryPerimeter=0;exitX=0;exitY=0.5;exitDx=0;exitDy=0;" parent="1" source="uHxRwa593Bf14waWoEn_-67" target="uHxRwa593Bf14waWoEn_-18" edge="1">
          <mxGeometry width="160" relative="1" as="geometry">
            <mxPoint x="580" y="640" as="sourcePoint" />
            <mxPoint x="381.95000000000005" y="744.01" as="targetPoint" />
          </mxGeometry>
        </mxCell>
        <mxCell id="uHxRwa593Bf14waWoEn_-81" value="&lt;b&gt;&lt;font style=&quot;font-size: 16px&quot;&gt;三、配置流程&lt;/font&gt;&lt;/b&gt;" style="text;html=1;resizable=0;points=[];autosize=1;align=left;verticalAlign=top;spacingTop=-4;" parent="1" vertex="1">
          <mxGeometry x="550" y="50" width="110" height="20" as="geometry" />
        </mxCell>
        <mxCell id="uHxRwa593Bf14waWoEn_-82" value="&lt;font style=&quot;font-size: 15px&quot;&gt;&lt;font style=&quot;font-size: 15px&quot;&gt;设计流程图&lt;br&gt;为流程绑定业务对象&lt;br&gt;为任务节点配置节点表单 &lt;br&gt;&lt;/font&gt;为流程节点配置人员&lt;/font&gt;" style="text;html=1;resizable=0;points=[];autosize=1;align=left;verticalAlign=top;spacingTop=-4;" parent="1" vertex="1">
          <mxGeometry x="550" y="90" width="180" height="60" as="geometry" />
        </mxCell>
        <mxCell id="uHxRwa593Bf14waWoEn_-83" value="确定业务数据的数据结构" style="text;html=1;resizable=0;points=[];autosize=1;align=left;verticalAlign=top;spacingTop=-4;" parent="1" vertex="1">
          <mxGeometry x="120" y="169" width="150" height="20" as="geometry" />
        </mxCell>
        <mxCell id="9zWrci_jODp58yHlMNQq-9" style="edgeStyle=orthogonalEdgeStyle;rounded=0;orthogonalLoop=1;jettySize=auto;html=1;entryX=1;entryY=0.484;entryDx=0;entryDy=0;entryPerimeter=0;dashed=1;" parent="1" target="9zWrci_jODp58yHlMNQq-6" edge="1">
          <mxGeometry relative="1" as="geometry">
            <Array as="points">
              <mxPoint x="-160" y="254" />
              <mxPoint x="-160" y="149" />
            </Array>
            <mxPoint x="-120.30999999999995" y="254" as="sourcePoint" />
          </mxGeometry>
        </mxCell>
        <mxCell id="9zWrci_jODp58yHlMNQq-10" style="edgeStyle=orthogonalEdgeStyle;rounded=0;orthogonalLoop=1;jettySize=auto;html=1;dashed=1;" parent="1" target="9zWrci_jODp58yHlMNQq-4" edge="1">
          <mxGeometry relative="1" as="geometry">
            <Array as="points">
              <mxPoint x="-150" y="254" />
              <mxPoint x="-150" y="254" />
            </Array>
            <mxPoint x="-120.30999999999995" y="254" as="sourcePoint" />
          </mxGeometry>
        </mxCell>
        <mxCell id="TAGGZ8Yfu5hqmtk8ZU21-52" style="edgeStyle=orthogonalEdgeStyle;rounded=0;orthogonalLoop=1;jettySize=auto;html=1;entryX=0.979;entryY=0.563;entryDx=0;entryDy=0;entryPerimeter=0;dashed=1;fontSize=17;" edge="1" parent="1">
          <mxGeometry relative="1" as="geometry">
            <mxPoint x="-120.30999999999995" y="254" as="sourcePoint" />
            <mxPoint x="-216.0079999999998" y="364.0319999999999" as="targetPoint" />
            <Array as="points">
              <mxPoint x="-160" y="254" />
              <mxPoint x="-160" y="364" />
            </Array>
          </mxGeometry>
        </mxCell>
        <mxCell id="9zWrci_jODp58yHlMNQq-1" value="" style="aspect=fixed;html=1;points=[];align=center;image;fontSize=12;image=img/lib/azure2/databases/Cache_Redis.svg;" parent="1" vertex="1">
          <mxGeometry x="-120.31" y="222.5" width="100.31" height="81.5" as="geometry" />
        </mxCell>
        <mxCell id="9zWrci_jODp58yHlMNQq-4" value="" style="aspect=fixed;html=1;points=[];align=center;image;fontSize=12;image=img/lib/azure2/databases/Azure_Database_MySQL_Server.svg;" parent="1" vertex="1">
          <mxGeometry x="-266" y="213" width="48" height="64" as="geometry" />
        </mxCell>
        <mxCell id="9zWrci_jODp58yHlMNQq-5" value="" style="aspect=fixed;html=1;points=[];align=center;image;fontSize=12;image=img/lib/azure2/databases/Azure_Database_MariaDB_Server.svg;" parent="1" vertex="1">
          <mxGeometry x="-88" y="320" width="48" height="64" as="geometry" />
        </mxCell>
        <mxCell id="9zWrci_jODp58yHlMNQq-6" value="" style="aspect=fixed;html=1;points=[];align=center;image;fontSize=12;image=img/lib/azure2/databases/Azure_Database_PostgreSQL_Server.svg;" parent="1" vertex="1">
          <mxGeometry x="-265.5" y="118" width="48" height="64" as="geometry" />
        </mxCell>
        <mxCell id="9zWrci_jODp58yHlMNQq-8" value="" style="aspect=fixed;html=1;points=[];align=center;image;fontSize=12;image=img/lib/azure2/databases/SQL_Database.svg;" parent="1" vertex="1">
          <mxGeometry x="-263" y="324" width="48" height="64" as="geometry" />
        </mxCell>
        <mxCell id="9zWrci_jODp58yHlMNQq-13" value="&lt;b&gt;PostgreSql&lt;/b&gt;" style="text;html=1;align=center;verticalAlign=middle;resizable=0;points=[];autosize=1;" parent="1" vertex="1">
          <mxGeometry x="-286" y="98" width="80" height="20" as="geometry" />
        </mxCell>
        <mxCell id="9zWrci_jODp58yHlMNQq-14" value="&lt;b&gt;MySQL&lt;/b&gt;" style="text;html=1;align=center;verticalAlign=middle;resizable=0;points=[];autosize=1;" parent="1" vertex="1">
          <mxGeometry x="-272" y="193" width="60" height="20" as="geometry" />
        </mxCell>
        <mxCell id="9zWrci_jODp58yHlMNQq-16" value="&lt;b&gt;Oracle、SQLServer、&lt;br&gt;达梦数据库&lt;/b&gt;" style="text;html=1;align=center;verticalAlign=middle;resizable=0;points=[];autosize=1;" parent="1" vertex="1">
          <mxGeometry x="-309.99999999999994" y="294" width="140" height="30" as="geometry" />
        </mxCell>
        <mxCell id="9zWrci_jODp58yHlMNQq-19" value="MongoDB 持久化" style="text;html=1;align=center;verticalAlign=middle;resizable=0;points=[];autosize=1;" parent="1" vertex="1">
          <mxGeometry x="-40" y="337" width="110" height="20" as="geometry" />
        </mxCell>
        <mxCell id="9zWrci_jODp58yHlMNQq-20" value="" style="html=1;dashed=0;whitespace=wrap;fillColor=#2875E2;strokeColor=#ffffff;points=[[0.005,0.63,0],[0.1,0.2,0],[0.9,0.2,0],[0.5,0,0],[0.995,0.63,0],[0.72,0.99,0],[0.5,1,0],[0.28,0.99,0]];shape=mxgraph.kubernetes.icon;prIcon=api" parent="1" vertex="1">
          <mxGeometry x="-100.16" y="118" width="70.31" height="84" as="geometry" />
        </mxCell>
        <mxCell id="9zWrci_jODp58yHlMNQq-21" value="HTTP 远程持久化" style="text;html=1;align=center;verticalAlign=middle;resizable=0;points=[];autosize=1;" parent="1" vertex="1">
          <mxGeometry x="-27" y="140" width="110" height="20" as="geometry" />
        </mxCell>
        <mxCell id="uHxRwa593Bf14waWoEn_-1" value="&lt;b&gt;&lt;font style=&quot;font-size: 13px&quot;&gt;业务对象&amp;nbsp;&lt;/font&gt;&lt;/b&gt;" style="rounded=1;whiteSpace=wrap;html=1;fillColor=#fff2cc;strokeColor=#d6b656;" parent="1" vertex="1">
          <mxGeometry x="215" y="213" width="160" height="90" as="geometry" />
        </mxCell>
        <mxCell id="9zWrci_jODp58yHlMNQq-27" value="" style="endArrow=block;endSize=16;endFill=0;html=1;exitX=0.486;exitY=1.038;exitDx=0;exitDy=0;exitPerimeter=0;entryX=0.5;entryY=0;entryDx=0;entryDy=0;" parent="1" source="uHxRwa593Bf14waWoEn_-53" target="uHxRwa593Bf14waWoEn_-1" edge="1">
          <mxGeometry width="160" relative="1" as="geometry">
            <mxPoint x="300.03999999999996" y="157.98800000000006" as="sourcePoint" />
            <mxPoint x="299" y="270" as="targetPoint" />
            <Array as="points" />
          </mxGeometry>
        </mxCell>
        <mxCell id="9zWrci_jODp58yHlMNQq-34" value="&lt;font style=&quot;font-size: 18px&quot;&gt;ElementUI 前端套件&lt;/font&gt;" style="verticalLabelPosition=bottom;html=1;verticalAlign=top;align=center;strokeColor=none;shape=mxgraph.azure.computer;pointerEvents=1;dashed=1;fillColor=#4495D1;" parent="1" vertex="1">
          <mxGeometry x="-40" y="690" width="59" height="47.5" as="geometry" />
        </mxCell>
        <mxCell id="9zWrci_jODp58yHlMNQq-38" value="&lt;font style=&quot;font-size: 18px ; background-color: rgb(255 , 255 , 255)&quot;&gt;VUE 移动端前端套件&lt;/font&gt;" style="aspect=fixed;html=1;points=[];align=center;image;fontSize=12;image=img/lib/mscae/App_Service_Mobile_App.svg;dashed=1;" parent="1" vertex="1">
          <mxGeometry x="-29.85" y="480" width="34" height="50" as="geometry" />
        </mxCell>
        <mxCell id="9zWrci_jODp58yHlMNQq-63" value="&lt;font style=&quot;font-size: 18px&quot;&gt;Iview-Pro 前端套件&lt;/font&gt;" style="shadow=0;dashed=0;html=1;strokeColor=none;labelPosition=center;verticalLabelPosition=bottom;verticalAlign=top;align=center;outlineConnect=0;shape=mxgraph.veeam.2d.web_ui;fillColor=#4495D1;" parent="1" vertex="1">
          <mxGeometry x="-36.75" y="580" width="55.5" height="60" as="geometry" />
        </mxCell>
        <mxCell id="TAGGZ8Yfu5hqmtk8ZU21-1" value="" style="whiteSpace=wrap;html=1;align=left;strokeColor=none;" vertex="1" parent="1">
          <mxGeometry x="330" y="1064" width="206" height="90" as="geometry" />
        </mxCell>
        <mxCell id="TAGGZ8Yfu5hqmtk8ZU21-14" value="&lt;font style=&quot;font-size: 18px&quot;&gt;与业务系统交互&lt;/font&gt;" style="pointerEvents=1;shadow=0;dashed=0;html=1;strokeColor=none;labelPosition=center;verticalLabelPosition=bottom;verticalAlign=top;align=center;shape=mxgraph.mscae.system_center.cloud_distribution_point;fillColor=#4495D1;" vertex="1" parent="1">
          <mxGeometry x="1030" y="515" width="90" height="115" as="geometry" />
        </mxCell>
        <mxCell id="TAGGZ8Yfu5hqmtk8ZU21-28" style="edgeStyle=orthogonalEdgeStyle;rounded=0;orthogonalLoop=1;jettySize=auto;html=1;entryX=0;entryY=0.5;entryDx=0;entryDy=0;entryPerimeter=0;fontSize=15;dashed=1;" edge="1" parent="1" source="TAGGZ8Yfu5hqmtk8ZU21-17" target="TAGGZ8Yfu5hqmtk8ZU21-14">
          <mxGeometry relative="1" as="geometry" />
        </mxCell>
        <mxCell id="TAGGZ8Yfu5hqmtk8ZU21-17" value="" style="outlineConnect=0;dashed=0;verticalLabelPosition=bottom;verticalAlign=top;align=center;html=1;shape=mxgraph.aws3.http_notification;gradientColor=none;fontSize=15;fillColor=#4495D1;" vertex="1" parent="1">
          <mxGeometry x="824.75" y="378.5" width="100.5" height="63" as="geometry" />
        </mxCell>
        <mxCell id="TAGGZ8Yfu5hqmtk8ZU21-29" style="edgeStyle=orthogonalEdgeStyle;rounded=0;orthogonalLoop=1;jettySize=auto;html=1;entryX=0;entryY=0.5;entryDx=0;entryDy=0;entryPerimeter=0;fontSize=15;dashed=1;" edge="1" parent="1" source="TAGGZ8Yfu5hqmtk8ZU21-19" target="TAGGZ8Yfu5hqmtk8ZU21-14">
          <mxGeometry relative="1" as="geometry" />
        </mxCell>
        <mxCell id="TAGGZ8Yfu5hqmtk8ZU21-19" value="&lt;font color=&quot;#ffffff&quot;&gt;事物消息&lt;/font&gt;" style="shape=message;html=1;whiteSpace=wrap;html=1;outlineConnect=0;fillColor=#4495D1;fontSize=15;" vertex="1" parent="1">
          <mxGeometry x="832.25" y="494.5" width="93" height="45" as="geometry" />
        </mxCell>
        <mxCell id="TAGGZ8Yfu5hqmtk8ZU21-30" style="edgeStyle=orthogonalEdgeStyle;rounded=0;orthogonalLoop=1;jettySize=auto;html=1;entryX=0;entryY=0.5;entryDx=0;entryDy=0;entryPerimeter=0;fontSize=15;dashed=1;" edge="1" parent="1">
          <mxGeometry relative="1" as="geometry">
            <mxPoint x="915" y="620" as="sourcePoint" />
            <mxPoint x="1028" y="572.5" as="targetPoint" />
            <Array as="points">
              <mxPoint x="978" y="620" />
              <mxPoint x="978" y="573" />
            </Array>
          </mxGeometry>
        </mxCell>
        <mxCell id="TAGGZ8Yfu5hqmtk8ZU21-21" value="ServiceBean API&amp;nbsp;" style="outlineConnect=0;dashed=0;verticalLabelPosition=bottom;verticalAlign=top;align=center;html=1;shape=mxgraph.aws3.api_gateway;fillColor=#D9A741;gradientColor=none;fontSize=15;" vertex="1" parent="1">
          <mxGeometry x="840.5" y="573.5" width="76.5" height="93" as="geometry" />
        </mxCell>
        <mxCell id="TAGGZ8Yfu5hqmtk8ZU21-31" style="edgeStyle=orthogonalEdgeStyle;rounded=0;orthogonalLoop=1;jettySize=auto;html=1;entryX=0;entryY=0.5;entryDx=0;entryDy=0;entryPerimeter=0;fontSize=15;dashed=1;" edge="1" parent="1">
          <mxGeometry relative="1" as="geometry">
            <mxPoint x="903.25" y="735.5" as="sourcePoint" />
            <mxPoint x="1028" y="572.5" as="targetPoint" />
            <Array as="points">
              <mxPoint x="978" y="736" />
              <mxPoint x="978" y="573" />
            </Array>
          </mxGeometry>
        </mxCell>
        <mxCell id="TAGGZ8Yfu5hqmtk8ZU21-27" value="Groovy Script" style="pointerEvents=1;shadow=0;dashed=0;html=1;strokeColor=none;fillColor=#505050;labelPosition=center;verticalLabelPosition=bottom;verticalAlign=top;outlineConnect=0;align=center;shape=mxgraph.office.concepts.script;fontSize=15;" vertex="1" parent="1">
          <mxGeometry x="852.25" y="711" width="53" height="49" as="geometry" />
        </mxCell>
        <mxCell id="TAGGZ8Yfu5hqmtk8ZU21-35" value="&amp;nbsp; Invoke&amp;nbsp;&amp;nbsp;" style="shape=flexArrow;endArrow=classic;startArrow=classic;html=1;fontSize=17;entryX=-0.01;entryY=0.476;entryDx=0;entryDy=0;entryPerimeter=0;" edge="1" parent="1">
          <mxGeometry width="50" height="50" relative="1" as="geometry">
            <mxPoint x="670" y="574" as="sourcePoint" />
            <mxPoint x="796.9699999999998" y="574.2" as="targetPoint" />
          </mxGeometry>
        </mxCell>
        <mxCell id="TAGGZ8Yfu5hqmtk8ZU21-41" value="Bootstrap 表单" style="verticalLabelPosition=bottom;html=1;verticalAlign=top;align=center;strokeColor=none;shape=mxgraph.azure.laptop;pointerEvents=1;fontSize=17;fillColor=#3D8BCD;" vertex="1" parent="1">
          <mxGeometry x="-43" y="790" width="65" height="45" as="geometry" />
        </mxCell>
        <mxCell id="TAGGZ8Yfu5hqmtk8ZU21-60" value="二、自由开发 Vue 组件页面&#xa;&#xa;直接配置到在线表单中&#xa;eg:&#xa;" style="text;fillColor=none;align=left;verticalAlign=top;spacingLeft=4;spacingRight=4;overflow=hidden;rotatable=0;points=[[0,0.5],[1,0.5]];portConstraint=eastwest;fontSize=13;fontStyle=1" vertex="1" parent="1">
          <mxGeometry x="-343" y="590" width="223" height="180" as="geometry" />
        </mxCell>
        <mxCell id="TAGGZ8Yfu5hqmtk8ZU21-62" value="一、拖拽式设计，在线二次开发&#xa;&#xa;" style="text;fillColor=none;align=left;verticalAlign=top;spacingLeft=4;spacingRight=4;overflow=hidden;rotatable=0;points=[[0,0.5],[1,0.5]];portConstraint=eastwest;fontSize=13;fontStyle=1;strokeWidth=1;" vertex="1" parent="1">
          <mxGeometry x="-343" y="470" width="223" height="130" as="geometry" />
        </mxCell>
        <mxCell id="TAGGZ8Yfu5hqmtk8ZU21-63" value="三、URL 表单&#xa;" style="text;fillColor=none;align=left;verticalAlign=top;spacingLeft=4;spacingRight=4;overflow=hidden;rotatable=0;points=[[0,0.5],[1,0.5]];portConstraint=eastwest;fontSize=13;fontStyle=1" vertex="1" parent="1">
          <mxGeometry x="-343" y="780" width="223" height="100" as="geometry" />
        </mxCell>
        <mxCell id="TAGGZ8Yfu5hqmtk8ZU21-68" value="List" style="swimlane;fontStyle=0;childLayout=stackLayout;horizontal=1;startSize=26;fillColor=none;horizontalStack=0;resizeParent=1;resizeParentMax=0;resizeLast=0;collapsible=1;marginBottom=0;strokeColor=#000000;strokeWidth=1;fontSize=13;fontColor=#EA6B66;" vertex="1" parent="1">
          <mxGeometry x="-266" y="1000" width="140" height="104" as="geometry" />
        </mxCell>
        <mxCell id="TAGGZ8Yfu5hqmtk8ZU21-69" value="Item 1" style="text;strokeColor=none;fillColor=none;align=left;verticalAlign=top;spacingLeft=4;spacingRight=4;overflow=hidden;rotatable=0;points=[[0,0.5],[1,0.5]];portConstraint=eastwest;" vertex="1" parent="TAGGZ8Yfu5hqmtk8ZU21-68">
          <mxGeometry y="26" width="140" height="26" as="geometry" />
        </mxCell>
        <mxCell id="TAGGZ8Yfu5hqmtk8ZU21-70" value="Item 2" style="text;strokeColor=none;fillColor=none;align=left;verticalAlign=top;spacingLeft=4;spacingRight=4;overflow=hidden;rotatable=0;points=[[0,0.5],[1,0.5]];portConstraint=eastwest;" vertex="1" parent="TAGGZ8Yfu5hqmtk8ZU21-68">
          <mxGeometry y="52" width="140" height="26" as="geometry" />
        </mxCell>
        <mxCell id="TAGGZ8Yfu5hqmtk8ZU21-71" value="Item 3" style="text;strokeColor=none;fillColor=none;align=left;verticalAlign=top;spacingLeft=4;spacingRight=4;overflow=hidden;rotatable=0;points=[[0,0.5],[1,0.5]];portConstraint=eastwest;" vertex="1" parent="TAGGZ8Yfu5hqmtk8ZU21-68">
          <mxGeometry y="78" width="140" height="26" as="geometry" />
        </mxCell>
        <mxCell id="TAGGZ8Yfu5hqmtk8ZU21-72" value="&lt;cust-page&#xa;:data=&quot;data.bizCode&quot;&#xa;:permiss=&quot;data.bizCode.table&quot;&#xa;:task=&quot;data.bpmTask&quot;&#xa;:instance=&quot;data.bpmInstance&quot;&#xa;&lt;/cust-page&gt;" style="text;strokeColor=none;fillColor=none;align=left;verticalAlign=top;spacingLeft=4;spacingRight=4;overflow=hidden;rotatable=0;points=[[0,0.5],[1,0.5]];portConstraint=eastwest;fontSize=13;fontColor=#D6663A;" vertex="1" parent="1">
          <mxGeometry x="-320" y="660" width="210" height="120" as="geometry" />
        </mxCell>
        <mxCell id="TAGGZ8Yfu5hqmtk8ZU21-73" value="可以快速整合已有业务表单" style="text;strokeColor=none;fillColor=none;align=left;verticalAlign=top;spacingLeft=4;spacingRight=4;overflow=hidden;rotatable=0;points=[[0,0.5],[1,0.5]];portConstraint=eastwest;" vertex="1" parent="1">
          <mxGeometry x="-340" y="812" width="140" height="26" as="geometry" />
        </mxCell>
        <mxCell id="TAGGZ8Yfu5hqmtk8ZU21-74" value="支持Vue原生语法&#xa;支持内嵌vue业务组件&#xa;支持字段级权限控制&#xa;支持可配置式高级表单控件" style="text;strokeColor=none;fillColor=none;align=left;verticalAlign=top;spacingLeft=4;spacingRight=4;overflow=hidden;rotatable=0;points=[[0,0.5],[1,0.5]];portConstraint=eastwest;" vertex="1" parent="1">
          <mxGeometry x="-340" y="499" width="180" height="95.5" as="geometry" />
        </mxCell>
        <mxCell id="TAGGZ8Yfu5hqmtk8ZU21-77" value="表单的开发模式" style="swimlane;strokeWidth=1;fontSize=15;fontColor=#FFFFFF;startSize=30;fillColor=#3D8BCD;" vertex="1" parent="1">
          <mxGeometry x="-343" y="440" width="222" height="440" as="geometry" />
        </mxCell>
        <mxCell id="TAGGZ8Yfu5hqmtk8ZU21-79" value="可供整合的前端套件" style="swimlane;strokeWidth=1;fontSize=15;fontColor=#FFFFFF;startSize=30;fillColor=#3D8BCD;" vertex="1" parent="1">
          <mxGeometry x="-120" y="440" width="222" height="440" as="geometry" />
        </mxCell>
      </root>
    </mxGraphModel>
  </diagram>
</mxfile>
